<?xml version="1.0" encoding="UTF-8"?>
<svg version="1.1" xmlns="http://www.w3.org/2000/svg" width="385" height="385">
<path d="M0 0 C1 1 1 1 1.16867065 4.06541443 C0.9919253 8.18835871 0.28085848 11.96659608 -0.69873047 15.95336914 C-0.88183147 16.72603024 -1.06493248 17.49869135 -1.253582 18.29476643 C-1.86738828 20.8767233 -2.49235084 23.45584846 -3.1171875 26.03515625 C-3.56268335 27.90010629 -4.00743656 29.76523386 -4.45150757 31.63052368 C-5.66361616 36.71364469 -6.88515885 41.79445617 -8.1084137 46.87490463 C-9.39490415 52.22434931 -10.67346357 57.57568706 -11.95214844 62.92700195 C-12.34299118 64.56258765 -12.34299118 64.56258765 -12.74172974 66.23121548 C-13.27701795 68.47128204 -13.81228075 70.71135467 -14.34751892 72.95143318 C-15.17347643 76.40656772 -16.00054464 79.86143504 -16.82775879 83.31626892 C-20.69646118 99.48346646 -24.51598836 115.66180875 -28.30888748 131.84694862 C-29.20479169 135.66909297 -30.10175591 139.4909869 -30.99911499 143.31278992 C-31.29211046 144.56070218 -31.58510593 145.80861444 -31.88698006 147.09434223 C-32.47374264 149.59337553 -33.06052812 152.09240346 -33.64733696 154.5914259 C-35.09249016 160.74795904 -36.53496944 166.90509752 -37.97210693 173.06350708 C-39.3297216 178.88055917 -40.69436072 184.69591997 -42.06416702 190.51011276 C-42.56815598 192.65522224 -43.06949377 194.80095656 -43.56800461 196.94734573 C-44.25100146 199.88673411 -44.9432132 202.82380549 -45.63769531 205.76049805 C-45.93206891 207.04274309 -45.93206891 207.04274309 -46.23238945 208.35089207 C-48.70727834 218.70727834 -48.70727834 218.70727834 -52 222 C-58.08708252 222.87507821 -62.28504515 220.1468563 -67.4375 217.3125 C-68.34185791 216.82716797 -69.24621582 216.34183594 -70.17797852 215.84179688 C-78.30214718 211.45403675 -86.34391119 206.91262875 -94.35913086 202.3293457 C-98.85325215 199.75951713 -103.33354268 197.24363891 -108 195 C-108.27078369 195.58088379 -108.54156738 196.16176758 -108.82055664 196.76025391 C-110.00032878 199.00062435 -111.30842894 200.84709137 -112.87109375 202.8359375 C-113.43981201 203.56329102 -114.00853027 204.29064453 -114.59448242 205.04003906 C-115.20267822 205.81057617 -115.81087402 206.58111328 -116.4375 207.375 C-117.06567627 208.17647461 -117.69385254 208.97794922 -118.34106445 209.80371094 C-120.22419989 212.20498931 -122.11182261 214.60268544 -124 217 C-124.99513765 218.2679577 -125.98996037 219.53616268 -126.984375 220.8046875 C-128.32373568 222.51318207 -129.66430071 224.22062395 -131.00976562 225.92431641 C-133.35960581 228.89991033 -135.68569253 231.89090198 -137.984375 234.90625 C-138.47848877 235.54916992 -138.97260254 236.19208984 -139.48168945 236.85449219 C-140.42656787 238.08475146 -141.36558146 239.31954583 -142.29760742 240.55957031 C-144.56852829 243.50280046 -146.39519468 245.83149319 -150 247 C-152.64652727 246.80635166 -154.36186669 246.44259589 -156.54917908 244.92552185 C-158.72216614 242.04154492 -159.06437977 238.8599945 -159.65063477 235.37915039 C-159.79106705 234.60485184 -159.93149933 233.83055328 -160.07618713 233.03279114 C-160.3803644 231.35250064 -160.67966843 229.67132233 -160.97467232 227.98939705 C-161.44523655 225.32597653 -161.93568947 222.66698519 -162.43284607 220.00840759 C-163.84558794 212.45013227 -165.2456172 204.8901844 -166.57446289 197.31665039 C-167.38906607 192.68251871 -168.2468244 188.05818362 -169.13313103 183.43725395 C-169.46222755 181.67678655 -169.77510536 179.91320576 -170.07126045 178.14689827 C-171.26574682 168.77428823 -171.26574682 168.77428823 -176.10461426 161.15364075 C-178.73922664 160.06368979 -181.1986846 159.51467846 -184 159 C-185.82372284 158.38206821 -187.63813309 157.73605816 -189.44287109 157.06469727 C-191.38561671 156.39633883 -193.32917316 155.73033371 -195.2734375 155.06640625 C-197.41929428 154.32754205 -199.56512687 153.58860759 -201.7109375 152.84960938 C-205.04316449 151.70528988 -208.37581344 150.56222141 -211.70898438 149.4206543 C-214.96079223 148.30590652 -218.21092619 147.18637912 -221.4609375 146.06640625 C-222.92870132 145.56615685 -222.92870132 145.56615685 -224.42611694 145.05580139 C-244.42204936 138.15590128 -244.42204936 138.15590128 -246 135 C-246.375 132.125 -246.375 132.125 -246 129 C-242.87323173 126.12902352 -239.58750077 124.10183819 -235.81640625 122.1875 C-234.31859619 121.41974243 -234.31859619 121.41974243 -232.79052734 120.63647461 C-231.19265381 119.82641968 -231.19265381 119.82641968 -229.5625 119 C-221.27429079 114.74777265 -213.03478131 110.43144357 -204.875 105.9375 C-197.46448242 101.86241816 -190.00880745 97.89099648 -182.5 94 C-174.95004368 90.08749523 -167.45293307 86.09431516 -160 82 C-151.59410852 77.3821712 -143.1205838 72.9126912 -134.60546875 68.5 C-128.02472801 65.08050819 -121.49980308 61.57070727 -115 58 C-106.59410852 53.3821712 -98.1205838 48.9126912 -89.60546875 44.5 C-83.02472801 41.08050819 -76.49980308 37.57070727 -70 34 C-61.60360077 29.38738583 -53.14024793 24.92174356 -44.6340332 20.51538086 C-36.87292635 16.48367999 -29.18723843 12.32338497 -21.53125 8.09570312 C-19.02767897 6.71739718 -16.51578649 5.35586307 -14 4 C-13.10361816 3.50741699 -12.20723633 3.01483398 -11.28369141 2.50732422 C-10.40245605 2.03955566 -9.5212207 1.57178711 -8.61328125 1.08984375 C-7.82348877 0.66437256 -7.03369629 0.23890137 -6.2199707 -0.19946289 C-3.65331319 -1.12501771 -2.51080195 -0.98089538 0 0 Z M-47 51 C-47.9178125 51.92941406 -48.835625 52.85882813 -49.78125 53.81640625 C-61.22947623 65.36453519 -61.22947623 65.36453519 -67.2109375 70.4296875 C-69.94364055 72.82826092 -72.45005228 75.44145935 -75 78.03125 C-77.56305228 80.55425459 -80.27345824 82.87562817 -83 85.21875 C-85.08337078 87.0742521 -87.04281207 89.01223101 -89 91 C-92.20029522 94.25029983 -95.54224576 97.24724245 -99 100.21875 C-101.08337078 102.0742521 -103.04281207 104.01223101 -105 106 C-108.20029522 109.25029983 -111.54224576 112.24724245 -115 115.21875 C-117.08337078 117.0742521 -119.04281207 119.01223101 -121 121 C-124.20029522 124.25029983 -127.54224576 127.24724245 -131 130.21875 C-133.08337078 132.0742521 -135.04281207 134.01223101 -137 136 C-140.19387466 139.24377895 -143.52722527 142.23637671 -146.98046875 145.19921875 C-149.86532664 147.77159687 -152.55005797 150.5253134 -155.23828125 153.30078125 C-157 155 -157 155 -160 157 C-159.35730987 163.58663299 -158.32082884 169.98559285 -157.00390625 176.46875 C-156.71349709 177.91102966 -156.71349709 177.91102966 -156.41722107 179.38244629 C-156.01001047 181.39634591 -155.60064401 183.40981073 -155.18920898 185.42285156 C-154.55901644 188.51710433 -153.94240353 191.61387807 -153.32617188 194.7109375 C-152.92790862 196.67204278 -152.52884892 198.63298653 -152.12890625 200.59375 C-151.94550186 201.52280151 -151.76209747 202.45185303 -151.57313538 203.40905762 C-151.39632736 204.26084595 -151.21951935 205.11263428 -151.03735352 205.99023438 C-150.88492691 206.74252319 -150.73250031 207.49481201 -150.57545471 208.26989746 C-150.38555466 208.8408313 -150.1956546 209.41176514 -150 210 C-149.34 210.33 -148.68 210.66 -148 211 C-147.63874023 209.83654053 -147.27748047 208.67308105 -146.90527344 207.47436523 C-145.52925084 203.07423092 -144.10959197 198.68913447 -142.67773438 194.30688477 C-142.06912778 192.42452863 -141.47171628 190.53850822 -140.88671875 188.64868164 C-136.9437734 175.94551097 -132.27049817 166.40794266 -123.34069824 156.51553345 C-121.53633034 154.47586499 -119.92584343 152.32099388 -118.328125 150.1171875 C-117.56242187 149.0662793 -117.56242187 149.0662793 -116.78125 147.99414062 C-116.2759375 147.29482422 -115.770625 146.59550781 -115.25 145.875 C-110.2477499 139.01943877 -105.1602641 132.23739076 -100 125.5 C-94.8864188 118.82165067 -89.84084977 112.10139822 -84.875 105.3125 C-80.34884557 99.12743829 -75.7294859 93.03096767 -71 87 C-62.02878984 75.55977714 -53.42598953 63.84659609 -45 52 C-45.99 51.505 -45.99 51.505 -47 51 Z " fill="#2497E7" transform="translate(371,117)"/>
<path d="M0 0 C90.42 0 180.84 0 274 0 C269.4497602 9.1004796 261.72912799 16.44578767 254.79956055 23.80615234 C251.55564566 27.26903976 248.46632799 30.79209001 245.5 34.5 C241.43430275 39.58212156 237.07092346 44.32760828 232.60351562 49.0546875 C232.07951172 49.61027344 231.55550781 50.16585937 231.015625 50.73828125 C230.55446289 51.22337158 230.09330078 51.70846191 229.61816406 52.20825195 C227.80397346 54.07556939 227.80397346 54.07556939 226.34614563 57.05177307 C224.3100074 59.46233803 223.14712234 59.97066706 220.00724983 60.59668827 C215.94393126 60.86856802 211.91423017 60.94671218 207.84350586 60.96337891 C206.27600778 60.99120634 204.70855144 61.02147584 203.1411438 61.05400085 C198.88668195 61.13371306 194.63269275 61.17471341 190.37762523 61.20547152 C187.71549087 61.22655737 185.05358975 61.25611101 182.39157295 61.28870773 C173.0929088 61.40250851 163.79456196 61.48530106 154.49536133 61.5390625 C145.8469721 61.58985917 137.20126804 61.7076155 128.55407232 61.8571192 C121.1162168 61.98275962 113.6788076 62.06138442 106.24001604 62.10405099 C101.80317712 62.13026994 97.368482 62.17492168 92.93247795 62.26695633 C88.75288167 62.35202821 84.57684329 62.37808412 80.39645767 62.36065102 C78.87098555 62.36396549 77.34538768 62.38750627 75.82061577 62.4338398 C69.43882855 62.61767923 63.59681279 62.64814676 58.4852314 58.36408615 C55.40746957 55.4444972 52.72692756 52.24487732 50 49 C48.65432842 47.75908806 47.28660474 46.5403611 45.875 45.375 C41.83505985 41.93853639 38.16309505 38.17727913 34.4375 34.40625 C32.34999365 32.34550655 30.22830777 30.40484374 28 28.5 C23.92936259 25.02026157 20.21480605 21.22971164 16.453125 17.421875 C13.67918276 14.68326961 10.78239542 12.13760825 7.828125 9.59765625 C5.06572545 7.18350792 2.49985782 4.68734715 0 2 C0 1.34 0 0.68 0 0 Z " fill="#000000" transform="translate(28,17)"/>
<path d="M0 0 C2.62696258 0.0242794 5.25398447 0.04276891 7.88102722 0.05574036 C14.05859795 0.0959069 20.23312384 0.20223619 26.40936249 0.33328372 C33.44900027 0.47935935 40.48879534 0.55025556 47.52957499 0.61532438 C61.99393289 0.75065926 76.45590819 0.97883047 90.91796875 1.26953125 C89.98977876 2.52805399 89.05860087 3.78437333 88.1262207 5.03979492 C87.60800247 5.73965012 87.08978424 6.43950531 86.55586243 7.16056824 C83.95576133 10.50847605 81.04100336 13.52959481 78.10546875 16.58203125 C74.04522997 20.86265877 70.09738134 25.15128168 66.41796875 29.76953125 C62.28561181 34.95039667 57.81497891 39.75195188 53.22851562 44.52929688 C52.67228516 45.11388672 52.11605469 45.69847656 51.54296875 46.30078125 C50.98394867 46.87503845 50.42492859 47.44929565 49.84896851 48.04095459 C47.82161933 50.25619442 47.82161933 50.25619442 46.23928833 53.02435303 C43.10770376 57.83626453 40.75604326 60.80554507 35.05706787 62.24414062 C30.23675645 62.70324226 25.42980314 62.53341547 20.59765625 62.37890625 C18.77584844 62.36084963 16.95398712 62.34762657 15.1321106 62.33892822 C10.32204005 62.3026707 5.51560878 62.19987797 0.70690918 62.08312988 C-4.03611596 61.97961029 -8.77956585 61.93998514 -13.5234375 61.89453125 C-24.7117937 61.7727737 -35.89632017 61.53705726 -47.08203125 61.26953125 C-48.0315416 61.24704315 -48.98105194 61.22455505 -49.95933533 61.2013855 C-62.00090567 60.91514838 -74.04173303 60.60494843 -86.08203125 60.26953125 C-84.44634337 56.77220103 -82.73202128 54.85867456 -79.77734375 52.33984375 C-75.60229205 48.67485945 -71.61303296 44.89154255 -67.69921875 40.94921875 C-67.14969543 40.39639221 -66.60017212 39.84356567 -66.03399658 39.27398682 C-64.33967106 37.56613865 -62.64791187 35.85578978 -60.95703125 34.14453125 C-47.35586631 20.3804781 -47.35586631 20.3804781 -42.28553772 16.33924866 C-39.90644191 14.23398559 -39.90644191 14.23398559 -37.79899597 11.12785339 C-27.83021017 -2.00835869 -15.29653694 -0.41653894 0 0 Z " fill="#000000" transform="translate(116.08203125,124.73046875)"/>
<path d="M0 0 C1.26135236 0.9260776 2.51991779 1.85595164 3.77734375 2.78735352 C4.47851318 3.30475601 5.17968262 3.82215851 5.90209961 4.35523987 C9.21030325 6.94888134 12.08550264 9.91741089 15 12.9375 C19.268139 17.28726078 23.55714661 21.48881776 28.2109375 25.4296875 C30.94501906 27.82947087 33.45263272 30.44409678 36.00390625 33.03515625 C37.92107177 34.92230744 39.89575322 36.68685375 41.9375 38.4375 C45.74124724 41.70529851 49.23792989 45.22046179 52.7578125 48.7890625 C55.49252841 51.4856639 58.35073927 54.0024816 61.2734375 56.4921875 C61.84320313 56.98976562 62.41296875 57.48734375 63 58 C63.5158667 58.37987061 64.0317334 58.75974121 64.56323242 59.15112305 C68.0123425 63.58954456 66.88113384 71.42902873 66.9375 76.9375 C66.95127686 78.07273102 66.95127686 78.07273102 66.96533203 79.230896 C67.01538387 94.84081434 67.01538387 94.84081434 62.09204102 100.26391602 C60.08776576 101.97743152 57.98783567 103.4946339 55.74023438 104.87402344 C47.71497474 110.06657358 41.18257052 117.72662781 34.5 124.5 C28.76550495 130.31241443 23.0556765 136.07071392 16.84082031 141.37744141 C12.93684059 144.81853547 9.37639659 148.62552051 5.76171875 152.36523438 C5.17261719 152.96529297 4.58351563 153.56535156 3.9765625 154.18359375 C3.45143066 154.72556396 2.92629883 155.26753418 2.38525391 155.82592773 C1 157 1 157 -1 157 C-1.16878074 120.51739363 -0.87211349 84.04303156 -0.5 47.5625 C-0.48804218 46.38988365 -0.47608437 45.2172673 -0.46376419 44.00911713 C-0.31374477 29.3393623 -0.15901863 14.66965993 0 0 Z " fill="#000000" transform="translate(15,24)"/>
<path d="M0 0 C4.85387228 4.16046196 9.5906511 8.32666262 14.25 12.6875 C14.9004126 13.294729 15.5508252 13.90195801 16.22094727 14.52758789 C21.12393666 19.12681494 25.87583578 23.85165204 30.6015625 28.6328125 C32.61530978 30.62032203 34.65642893 32.4839334 36.8125 34.3125 C41.41682216 38.23329392 45.59684382 42.56853397 49.84448242 46.86621094 C53.53814078 50.58736303 57.28684973 54.15283428 61.3515625 57.47265625 C63.4941242 59.45782598 65.21738051 61.6919359 67 64 C61.07585355 70.62726484 55.07876482 77.18169156 49.04296875 83.70703125 C46.16605238 86.81782841 43.29950383 89.93798345 40.4375 93.0625 C39.98777832 93.55347168 39.53805664 94.04444336 39.07470703 94.55029297 C38.16937398 95.53884515 37.26410037 96.52745177 36.35888672 97.51611328 C34.07357504 100.01164407 31.7867042 102.50574527 29.5 105 C28.58332596 105.99999325 27.6666593 106.99999324 26.75 108 C24.91666667 110 23.08333333 112 21.25 114 C20.7955249 114.49588623 20.3410498 114.99177246 19.87280273 115.50268555 C18.96384409 116.49408575 18.05450681 117.48513895 17.14477539 118.47583008 C14.73182013 121.10456048 12.32736322 123.74049617 9.93359375 126.38671875 C9.43214844 126.93908203 8.93070313 127.49144531 8.4140625 128.06054688 C7.44940245 129.12345933 6.48705659 130.18847792 5.52734375 131.25585938 C2.2249244 134.8875378 2.2249244 134.8875378 0 136 C0 91.12 0 46.24 0 0 Z " fill="#000000" transform="translate(15,200)"/>
<path d="M0 0 C19.47 0 38.94 0 59 0 C59 18.81 59 37.62 59 57 C53.82930025 52.56797165 48.81918392 48.10445058 43.875 43.4375 C43.13580322 42.74148682 42.39660645 42.04547363 41.63500977 41.32836914 C36.43442294 36.41044119 31.35034924 31.39103358 26.31958008 26.30029297 C23.64998553 23.6100431 20.9528994 21.01385139 18.0625 18.5625 C14.00736461 15.12045203 10.26439893 11.37813811 6.5 7.625 C5.86328369 6.99279541 5.22656738 6.36059082 4.57055664 5.70922852 C3.68484985 4.82062134 3.68484985 4.82062134 2.78125 3.9140625 C2.24564453 3.3773291 1.71003906 2.8405957 1.15820312 2.28759766 C0 1 0 1 0 0 Z " fill="#000000" transform="translate(30,196)"/>
</svg>
